<svg width="22" height="19" viewBox="0 0 22 19" fill="none" xmlns="http://www.w3.org/2000/svg">
<path d="M3.6875 12.625C3.85156 12.625 3.98047 12.6836 4.07422 12.8008C4.19141 12.8945 4.25 13.0234 4.25 13.1875V17.6875C4.25 17.8516 4.19141 17.9805 4.07422 18.0742C3.98047 18.1914 3.85156 18.25 3.6875 18.25H1.4375C1.27344 18.25 1.13281 18.1914 1.01562 18.0742C0.921875 17.9805 0.875 17.8516 0.875 17.6875V13.1875C0.875 13.0234 0.921875 12.8945 1.01562 12.8008C1.13281 12.6836 1.27344 12.625 1.4375 12.625H3.6875ZM3.125 17.125V13.75H2V17.125H3.125ZM20.5625 7C20.7266 7 20.8555 7.05859 20.9492 7.17578C21.0664 7.26953 21.125 7.39844 21.125 7.5625V17.6875C21.125 17.8516 21.0664 17.9805 20.9492 18.0742C20.8555 18.1914 20.7266 18.25 20.5625 18.25H18.3125C18.1484 18.25 18.0078 18.1914 17.8906 18.0742C17.7969 17.9805 17.75 17.8516 17.75 17.6875V7.5625C17.75 7.39844 17.7969 7.26953 17.8906 7.17578C18.0078 7.05859 18.1484 7 18.3125 7H20.5625ZM20 17.125V8.125H18.875V17.125H20ZM18.5586 3.37891L15.3945 5.875C15.4648 6.08594 15.5 6.27344 15.5 6.4375C15.5 6.90625 15.3359 7.30469 15.0078 7.63281C14.6797 7.96094 14.2812 8.125 13.8125 8.125C13.3438 8.125 12.9453 7.96094 12.6172 7.63281C12.2891 7.30469 12.125 6.90625 12.125 6.4375C12.125 6.27344 12.1602 6.08594 12.2305 5.875L9.06641 3.37891C8.78516 3.54297 8.49219 3.625 8.1875 3.625C7.92969 3.625 7.68359 3.56641 7.44922 3.44922L4.07422 6.82422C4.19141 7.05859 4.25 7.30469 4.25 7.5625C4.25 8.03125 4.08594 8.42969 3.75781 8.75781C3.42969 9.08594 3.03125 9.25 2.5625 9.25C2.09375 9.25 1.69531 9.08594 1.36719 8.75781C1.03906 8.42969 0.875 8.03125 0.875 7.5625C0.875 7.09375 1.03906 6.69531 1.36719 6.36719C1.69531 6.03906 2.09375 5.875 2.5625 5.875C2.82031 5.875 3.06641 5.93359 3.30078 6.05078L6.67578 2.67578C6.55859 2.44141 6.5 2.19531 6.5 1.9375C6.5 1.46875 6.66406 1.07031 6.99219 0.742188C7.32031 0.414063 7.71875 0.25 8.1875 0.25C8.65625 0.25 9.05469 0.414063 9.38281 0.742188C9.71094 1.07031 9.875 1.46875 9.875 1.9375C9.875 2.10156 9.83984 2.28906 9.76953 2.5L12.9336 4.99609C13.2148 4.83203 13.5078 4.75 13.8125 4.75C14.1172 4.75 14.4102 4.83203 14.6914 4.99609L17.8555 2.5C17.7852 2.28906 17.75 2.10156 17.75 1.9375C17.75 1.46875 17.9141 1.07031 18.2422 0.742188C18.5703 0.414063 18.9688 0.25 19.4375 0.25C19.9062 0.25 20.3047 0.414063 20.6328 0.742188C20.9609 1.07031 21.125 1.46875 21.125 1.9375C21.125 2.40625 20.9609 2.80469 20.6328 3.13281C20.3047 3.46094 19.9062 3.625 19.4375 3.625C19.1328 3.625 18.8398 3.54297 18.5586 3.37891ZM19.8242 1.55078C19.7305 1.43359 19.6016 1.375 19.4375 1.375C19.2734 1.375 19.1328 1.43359 19.0156 1.55078C18.9219 1.64453 18.875 1.77344 18.875 1.9375C18.875 2.10156 18.9219 2.24219 19.0156 2.35938C19.1328 2.45313 19.2734 2.5 19.4375 2.5C19.6016 2.5 19.7305 2.45313 19.8242 2.35938C19.9414 2.24219 20 2.10156 20 1.9375C20 1.77344 19.9414 1.64453 19.8242 1.55078ZM2.14062 7.98438C2.25781 8.07812 2.39844 8.125 2.5625 8.125C2.72656 8.125 2.85547 8.07812 2.94922 7.98438C3.06641 7.86719 3.125 7.72656 3.125 7.5625C3.125 7.39844 3.06641 7.26953 2.94922 7.17578C2.85547 7.05859 2.72656 7 2.5625 7C2.39844 7 2.25781 7.05859 2.14062 7.17578C2.04688 7.26953 2 7.39844 2 7.5625C2 7.72656 2.04688 7.86719 2.14062 7.98438ZM7.76562 2.35938C7.88281 2.45313 8.02344 2.5 8.1875 2.5C8.35156 2.5 8.48047 2.45313 8.57422 2.35938C8.69141 2.24219 8.75 2.10156 8.75 1.9375C8.75 1.77344 8.69141 1.64453 8.57422 1.55078C8.48047 1.43359 8.35156 1.375 8.1875 1.375C8.02344 1.375 7.88281 1.43359 7.76562 1.55078C7.67188 1.64453 7.625 1.77344 7.625 1.9375C7.625 2.10156 7.67188 2.24219 7.76562 2.35938ZM13.3906 6.85938C13.5078 6.95312 13.6484 7 13.8125 7C13.9766 7 14.1055 6.95312 14.1992 6.85938C14.3164 6.74219 14.375 6.60156 14.375 6.4375C14.375 6.27344 14.3164 6.14453 14.1992 6.05078C14.1055 5.93359 13.9766 5.875 13.8125 5.875C13.6484 5.875 13.5078 5.93359 13.3906 6.05078C13.2969 6.14453 13.25 6.27344 13.25 6.4375C13.25 6.60156 13.2969 6.74219 13.3906 6.85938ZM9.3125 7C9.47656 7 9.60547 7.05859 9.69922 7.17578C9.81641 7.26953 9.875 7.39844 9.875 7.5625V17.6875C9.875 17.8516 9.81641 17.9805 9.69922 18.0742C9.60547 18.1914 9.47656 18.25 9.3125 18.25H7.0625C6.89844 18.25 6.75781 18.1914 6.64062 18.0742C6.54688 17.9805 6.5 17.8516 6.5 17.6875V7.5625C6.5 7.39844 6.54688 7.26953 6.64062 7.17578C6.75781 7.05859 6.89844 7 7.0625 7H9.3125ZM8.75 17.125V8.125H7.625V17.125H8.75ZM14.9375 11.5C15.1016 11.5 15.2305 11.5586 15.3242 11.6758C15.4414 11.7695 15.5 11.8984 15.5 12.0625V17.6875C15.5 17.8516 15.4414 17.9805 15.3242 18.0742C15.2305 18.1914 15.1016 18.25 14.9375 18.25H12.6875C12.5234 18.25 12.3828 18.1914 12.2656 18.0742C12.1719 17.9805 12.125 17.8516 12.125 17.6875V12.0625C12.125 11.8984 12.1719 11.7695 12.2656 11.6758C12.3828 11.5586 12.5234 11.5 12.6875 11.5H14.9375ZM14.375 17.125V12.625H13.25V17.125H14.375Z" fill="#5C5C70"/>
</svg>
