<svg width="9" height="12" viewBox="0 0 9 12" fill="none" xmlns="http://www.w3.org/2000/svg">
<path fill-rule="evenodd" clip-rule="evenodd" d="M7.875 1.5H6C6 0.672656 5.32734 0 4.5 0C3.67266 0 3 0.672656 3 1.5H1.125C0.503906 1.5 0 2.00391 0 2.625V10.875C0 11.4961 0.503906 12 1.125 12H7.875C8.49609 12 9 11.4961 9 10.875V2.625C9 2.00391 8.49609 1.5 7.875 1.5ZM4.5 0.9375C4.81172 0.9375 5.0625 1.18828 5.0625 1.5C5.0625 1.81172 4.81172 2.0625 4.5 2.0625C4.18828 2.0625 3.9375 1.81172 3.9375 1.5C3.9375 1.18828 4.18828 0.9375 4.5 0.9375ZM3.98906 9.69375L7.34062 6.37031C7.45078 6.26016 7.45312 6.08437 7.34297 5.97188L6.68203 5.30625C6.57188 5.19609 6.39375 5.19375 6.28359 5.30391L3.79922 7.76953L2.72109 6.68203C2.61094 6.57188 2.43281 6.56953 2.32266 6.67969L1.65703 7.34062C1.54688 7.45078 1.54453 7.62891 1.65469 7.73906L3.59063 9.69141C3.70078 9.80156 3.87891 9.80391 3.98906 9.69375Z" fill="#5C5C70"/>
</svg>
