<svg width="12" height="12" viewBox="0 0 12 12" fill="none" xmlns="http://www.w3.org/2000/svg">
<path fill-rule="evenodd" clip-rule="evenodd" d="M12 6C12 9.31444 9.31348 12 6 12C2.68652 12 0 9.31444 0 6C0 2.68749 2.68652 0 6 0C9.31348 0 12 2.68749 12 6ZM6 7.20968C5.38536 7.20968 4.8871 7.70794 4.8871 8.32258C4.8871 8.93722 5.38536 9.43548 6 9.43548C6.61464 9.43548 7.1129 8.93722 7.1129 8.32258C7.1129 7.70794 6.61464 7.20968 6 7.20968ZM5.12286 6.49969L4.9434 3.20937C4.93432 3.04306 5.06671 2.90323 5.23326 2.90323H6.76672C6.93327 2.90323 7.06568 3.04306 7.0566 3.20937L6.87714 6.49969C6.86874 6.65366 6.74144 6.77419 6.58725 6.77419H5.41275C5.25856 6.77419 5.13126 6.65366 5.12286 6.49969Z" fill="#5C5C70"/>
</svg>
