<svg width="24" height="24" viewBox="0 0 24 24" fill="none" xmlns="http://www.w3.org/2000/svg">
<mask id="mask0" mask-type="alpha" maskUnits="userSpaceOnUse" x="0" y="0" width="24" height="24">
<rect width="24" height="24" rx="4" fill="#C4C4C4"/>
</mask>
<g mask="url(#mask0)">
<path d="M13.0312 10.9688C13.3438 11.25 13.5 11.5938 13.5 12C13.5 12.4062 13.3438 12.7656 13.0312 13.0781C12.75 13.3594 12.4062 13.5 12 13.5C11.5938 13.5 11.2344 13.3594 10.9219 13.0781C10.6406 12.7656 10.5 12.4062 10.5 12C10.5 11.5938 10.6406 11.25 10.9219 10.9688C11.2344 10.6562 11.5938 10.5 12 10.5C12.4062 10.5 12.75 10.6562 13.0312 10.9688ZM16.5469 10.9688C16.8594 10.6562 17.2188 10.5 17.625 10.5C18.0312 10.5 18.375 10.6562 18.6562 10.9688C18.9688 11.25 19.125 11.5938 19.125 12C19.125 12.4062 18.9688 12.7656 18.6562 13.0781C18.375 13.3594 18.0312 13.5 17.625 13.5C17.2188 13.5 16.8594 13.3594 16.5469 13.0781C16.2656 12.7656 16.125 12.4062 16.125 12C16.125 11.5938 16.2656 11.25 16.5469 10.9688ZM5.29688 10.9688C5.60938 10.6562 5.96875 10.5 6.375 10.5C6.78125 10.5 7.125 10.6562 7.40625 10.9688C7.71875 11.25 7.875 11.5938 7.875 12C7.875 12.4062 7.71875 12.7656 7.40625 13.0781C7.125 13.3594 6.78125 13.5 6.375 13.5C5.96875 13.5 5.60938 13.3594 5.29688 13.0781C5.01562 12.7656 4.875 12.4062 4.875 12C4.875 11.5938 5.01562 11.25 5.29688 10.9688Z" fill="#5C5C70"/>
</g>
</svg>
