<svg width="12" height="12" viewBox="0 0 12 12" fill="none" xmlns="http://www.w3.org/2000/svg">
<path fill-rule="evenodd" clip-rule="evenodd" d="M6 0C2.68621 0 0 2.68621 0 6C0 9.31379 2.68621 12 6 12C9.31379 12 12 9.31379 12 6C12 2.68621 9.31379 0 6 0ZM7.99089 8.65161C7.89653 8.74548 7.79758 8.84395 7.71726 8.92452C7.64492 8.9971 7.59387 9.08661 7.56798 9.18363C7.55856 9.21894 7.54961 9.25435 7.54066 9.28974C7.51491 9.39157 7.48921 9.4932 7.45258 9.59177L7.03185 10.7252C6.69895 10.7978 6.35444 10.8387 6 10.8387V10.1763C6.04089 9.87097 5.81516 9.29903 5.4525 8.93637C5.30734 8.79121 5.22581 8.59427 5.22581 8.38887V7.61444C5.22581 7.33282 5.07411 7.07395 4.82758 6.93774C4.47992 6.7454 3.9854 6.47661 3.64669 6.30605C3.36895 6.16621 3.11202 5.98814 2.88097 5.77984L2.86161 5.76242C2.69639 5.61328 2.54969 5.44481 2.42468 5.26065C2.19774 4.9275 1.82806 4.37952 1.58782 4.02339C2.08306 2.92258 2.97556 2.03855 4.0846 1.55831L4.66548 1.84887C4.9229 1.97758 5.22581 1.79056 5.22581 1.50266V1.22927C5.41911 1.19806 5.61581 1.17823 5.81589 1.17073L6.50056 1.8554C6.65177 2.00661 6.65177 2.25169 6.50056 2.4029L6.3871 2.51613L6.13694 2.76629C6.06145 2.84177 6.06145 2.96444 6.13694 3.03992L6.2504 3.15339C6.32589 3.22887 6.32589 3.35153 6.2504 3.42702L6.05685 3.62056C6.02051 3.65683 5.97126 3.6772 5.91992 3.67718H5.70242C5.6521 3.67718 5.60371 3.69677 5.56742 3.7321L5.32742 3.96556C5.26706 4.02435 5.2516 4.1154 5.28919 4.19081L5.66637 4.9454C5.73073 5.07411 5.6371 5.22556 5.49339 5.22556H5.35694C5.31024 5.22556 5.26524 5.20863 5.23016 5.17815L5.00565 4.98315C4.90228 4.89347 4.75928 4.86497 4.62944 4.90814L3.87532 5.15952C3.75725 5.19889 3.67762 5.30941 3.67766 5.43387C3.67766 5.54347 3.7396 5.64339 3.83758 5.6925L4.10565 5.82653C4.33331 5.94048 4.58444 5.99976 4.83895 5.99976C4.98417 5.99976 5.14159 6.21468 5.2923 6.42045C5.40574 6.57533 5.51538 6.72501 5.61314 6.77395H7.22806C7.43347 6.77395 7.63016 6.85548 7.77556 7.00065L8.10677 7.33185C8.24514 7.47027 8.32286 7.65799 8.32282 7.85371C8.32272 8.15324 8.20327 8.44039 7.99089 8.65161ZM9.74637 6.20032C9.82645 6.32056 9.94863 6.40645 10.0887 6.44153L10.7947 6.6179C10.8208 6.41516 10.8387 6.20976 10.8387 6C10.8387 5.22266 10.65 4.49008 10.3229 3.83879L10.0089 3.99581C9.91839 4.04081 9.84145 4.10903 9.78532 4.19298L9.31137 4.90379C9.18121 5.09874 9.18121 5.35287 9.31137 5.54782L9.74637 6.20032Z" fill="#5C5C70"/>
</svg>
