<svg width="22" height="17" viewBox="0 0 22 17" fill="none" xmlns="http://www.w3.org/2000/svg">
<path d="M18.9805 0.375C19.5664 0.375 20.0703 0.585938 20.4922 1.00781C20.9141 1.40625 21.125 1.88672 21.125 2.44922V12.8906C21.125 13.4297 20.9258 13.8984 20.5273 14.2969C20.1289 14.6953 19.6484 14.918 19.0859 14.9648C16.3906 15.082 14.2578 15.4336 12.6875 16.0195C12.5 16.0898 12.3125 16.125 12.125 16.125H9.875C9.6875 16.125 9.5 16.0898 9.3125 16.0195C7.74219 15.4336 5.60938 15.082 2.91406 14.9648C2.35156 14.918 1.87109 14.6953 1.47266 14.2969C1.07422 13.8984 0.875 13.4297 0.875 12.8906V2.44922C0.875 1.88672 1.08594 1.40625 1.50781 1.00781C1.92969 0.585938 2.43359 0.375 3.01953 0.375C3.86328 0.375 5.08203 0.515625 6.67578 0.796875C8.26953 1.05469 9.62891 1.47656 10.7539 2.0625C10.918 2.15625 11.082 2.15625 11.2461 2.0625C12.3711 1.47656 13.7305 1.05469 15.3242 0.796875C16.918 0.515625 18.1367 0.375 18.9805 0.375ZM10.4375 14.4727V7.33594V3.82031C10.4375 3.375 10.2148 3.04688 9.76953 2.83594C8.71484 2.36719 7.49609 2.02734 6.11328 1.81641C4.73047 1.60547 3.69922 1.5 3.01953 1.5C2.90234 1.5 2.78516 1.52344 2.66797 1.57031C2.57422 1.59375 2.48047 1.64062 2.38672 1.71094C2.31641 1.75781 2.24609 1.81641 2.17578 1.88672C2.12891 1.95703 2.08203 2.05078 2.03516 2.16797C2.01172 2.26172 2 2.35547 2 2.44922V12.8906C2 13.125 2.09375 13.3359 2.28125 13.5234C2.46875 13.7109 2.69141 13.8164 2.94922 13.8398C5.78516 13.9805 8.03516 14.3555 9.69922 14.9648C9.76953 14.9883 9.83984 15 9.91016 15C10.0508 15 10.168 14.9531 10.2617 14.8594C10.3789 14.7422 10.4375 14.6133 10.4375 14.4727ZM20 12.8906V2.44922C20 2.19141 19.8945 1.96875 19.6836 1.78125C19.4961 1.59375 19.2617 1.5 18.9805 1.5C18.3008 1.5 17.2695 1.60547 15.8867 1.81641C14.5039 2.02734 13.2852 2.36719 12.2305 2.83594C11.7852 3.04688 11.5625 3.375 11.5625 3.82031V7.33594V14.4727C11.5625 14.6133 11.6094 14.7422 11.7031 14.8594C11.8203 14.9531 11.9492 15 12.0898 15C12.1602 15 12.2305 14.9883 12.3008 14.9648C13.9648 14.3555 16.2148 13.9805 19.0508 13.8398C19.3086 13.8164 19.5312 13.7109 19.7188 13.5234C19.9062 13.3359 20 13.125 20 12.8906Z" fill="#5C5C70"/>
</svg>
