<svg width="9" height="12" viewBox="0 0 9 12" fill="none" xmlns="http://www.w3.org/2000/svg">
<path fill-rule="evenodd" clip-rule="evenodd" d="M6 3.375V0.75C6 0.335789 6.33579 0 6.75 0C7.16421 0 7.5 0.335789 7.5 0.75V3.375H6ZM8.625 3.75H0.375C0.167883 3.75 0 3.91788 0 4.125V4.875C0 5.08212 0.167883 5.25 0.375 5.25H0.75V6C0.75 7.8142 2.03834 9.32745 3.75 9.67491V12H5.25V9.67491C6.96166 9.32745 8.25 7.8142 8.25 6V5.25H8.625C8.83212 5.25 9 5.08212 9 4.875V4.125C9 3.91788 8.83212 3.75 8.625 3.75ZM3 0.75V3.375H1.5V0.75C1.5 0.335789 1.83579 0 2.25 0C2.66421 0 3 0.335789 3 0.75Z" fill="#5C5C70"/>
</svg>
