<svg width="17" height="17" viewBox="0 0 17 17" fill="none" xmlns="http://www.w3.org/2000/svg">
<path d="M15.875 15.0625C16.0625 15.2292 16.0625 15.4062 15.875 15.5938L15.5938 15.875C15.4062 16.0625 15.2292 16.0625 15.0625 15.875L11.0312 11.875C10.9479 11.7917 10.9062 11.6979 10.9062 11.5938V11.2812C9.65625 12.4271 8.1875 13 6.5 13C4.70833 13 3.17708 12.3646 1.90625 11.0938C0.635417 9.82292 0 8.29167 0 6.5C0 4.70833 0.635417 3.17708 1.90625 1.90625C3.17708 0.635417 4.70833 0 6.5 0C8.29167 0 9.82292 0.635417 11.0938 1.90625C12.3646 3.17708 13 4.70833 13 6.5C13 8.1875 12.4271 9.65625 11.2812 10.9062H11.5938C11.6979 10.9062 11.7917 10.9479 11.875 11.0312L15.875 15.0625ZM2.59375 10.4062C3.67708 11.4688 4.97917 12 6.5 12C8.02083 12 9.3125 11.4688 10.375 10.4062C11.4583 9.32292 12 8.02083 12 6.5C12 4.97917 11.4583 3.6875 10.375 2.625C9.3125 1.54167 8.02083 1 6.5 1C4.97917 1 3.67708 1.54167 2.59375 2.625C1.53125 3.6875 1 4.97917 1 6.5C1 8.02083 1.53125 9.32292 2.59375 10.4062Z" fill="#0D66E5"/>
</svg>
