<svg width="18" height="18" viewBox="0 0 18 18" fill="none" xmlns="http://www.w3.org/2000/svg">
<path d="M16.9805 10.7617C17.3555 10.9961 17.4844 11.3242 17.3672 11.7461C16.9688 13.0586 16.2891 14.2188 15.3281 15.2266C15.0234 15.5547 14.6836 15.6133 14.3086 15.4023L13.1484 14.7344C12.7031 15.0859 12.2109 15.3672 11.6719 15.5781V16.9141C11.6719 17.3594 11.4492 17.6289 11.0039 17.7227C9.66797 18.0508 8.33203 18.0508 6.99609 17.7227C6.55078 17.6289 6.32812 17.3594 6.32812 16.9141V15.5781C5.78906 15.3672 5.29688 15.0859 4.85156 14.7344L3.69141 15.4023C3.31641 15.6133 2.97656 15.5547 2.67188 15.2266C1.71094 14.2188 1.03125 13.0586 0.632812 11.7461C0.515625 11.3242 0.644531 10.9961 1.01953 10.7617L2.17969 10.0938C2.13281 9.8125 2.10938 9.53125 2.10938 9.25C2.10938 8.96875 2.13281 8.6875 2.17969 8.40625L1.01953 7.73828C0.644531 7.50391 0.515625 7.17578 0.632812 6.75391C1.03125 5.44141 1.71094 4.28125 2.67188 3.27344C2.97656 2.94531 3.31641 2.88672 3.69141 3.09766L4.85156 3.76562C5.29688 3.41406 5.78906 3.13281 6.32812 2.92188V1.58594C6.32812 1.14062 6.55078 0.871094 6.99609 0.777344C8.33203 0.449219 9.66797 0.449219 11.0039 0.777344C11.4492 0.871094 11.6719 1.14062 11.6719 1.58594V2.92188C12.2109 3.13281 12.7031 3.41406 13.1484 3.76562L14.3086 3.09766C14.6836 2.88672 15.0234 2.94531 15.3281 3.27344C16.2891 4.28125 16.9688 5.44141 17.3672 6.75391C17.4844 7.17578 17.3555 7.50391 16.9805 7.73828L15.8203 8.40625C15.8672 8.6875 15.8906 8.96875 15.8906 9.25C15.8906 9.53125 15.8672 9.8125 15.8203 10.0938L16.9805 10.7617ZM14.6602 14.3125C15.3633 13.5156 15.8789 12.625 16.207 11.6406L14.5898 10.6914C14.707 10.0586 14.7656 9.57812 14.7656 9.25C14.7656 8.92188 14.707 8.44141 14.5898 7.80859L16.207 6.85938C15.8789 5.875 15.3633 4.98438 14.6602 4.1875L13.043 5.13672C12.5508 4.71484 12.1523 4.42188 11.8477 4.25781C11.5664 4.09375 11.1328 3.90625 10.5469 3.69531V1.79688C10.0312 1.70312 9.51562 1.65625 9 1.65625C8.48438 1.65625 7.96875 1.70312 7.45312 1.79688V3.69531C6.86719 3.90625 6.42188 4.09375 6.11719 4.25781C5.83594 4.42188 5.44922 4.71484 4.95703 5.13672L3.33984 4.1875C2.63672 4.98438 2.12109 5.875 1.79297 6.85938L3.41016 7.80859C3.29297 8.44141 3.23438 8.92188 3.23438 9.25C3.23438 9.57812 3.29297 10.0586 3.41016 10.6914L1.79297 11.6406C2.12109 12.625 2.63672 13.5156 3.33984 14.3125L4.95703 13.3633C5.44922 13.7852 5.83594 14.0781 6.11719 14.2422C6.42188 14.4062 6.86719 14.5938 7.45312 14.8047V16.7031C7.96875 16.7969 8.48438 16.8438 9 16.8438C9.51562 16.8438 10.0312 16.7969 10.5469 16.7031V14.8047C11.1328 14.5938 11.5664 14.4062 11.8477 14.2422C12.1523 14.0547 12.5508 13.7617 13.043 13.3633L14.6602 14.3125ZM6.60938 6.85938C7.26562 6.20312 8.0625 5.875 9 5.875C9.9375 5.875 10.7344 6.20312 11.3906 6.85938C12.0469 7.51562 12.375 8.3125 12.375 9.25C12.375 10.1875 12.0469 10.9844 11.3906 11.6406C10.7344 12.2969 9.9375 12.625 9 12.625C8.0625 12.625 7.26562 12.2969 6.60938 11.6406C5.95312 10.9844 5.625 10.1875 5.625 9.25C5.625 8.3125 5.95312 7.51562 6.60938 6.85938ZM7.41797 10.832C7.86328 11.2773 8.39062 11.5 9 11.5C9.60938 11.5 10.1367 11.2773 10.582 10.832C11.0273 10.3867 11.25 9.85938 11.25 9.25C11.25 8.64062 11.0273 8.11328 10.582 7.66797C10.1367 7.22266 9.60938 7 9 7C8.39062 7 7.86328 7.22266 7.41797 7.66797C6.97266 8.11328 6.75 8.64062 6.75 9.25C6.75 9.85938 6.97266 10.3867 7.41797 10.832Z" fill="#5C5C70"/>
</svg>
