<svg width="12" height="19" viewBox="0 0 12 19" fill="none" xmlns="http://www.w3.org/2000/svg">
<path d="M10.8164 5.875C11.1445 5.875 11.3906 6.01562 11.5547 6.29688C11.7188 6.57812 11.7188 6.85938 11.5547 7.14062L5.36719 17.8281C5.20312 18.1094 4.95703 18.25 4.62891 18.25C4.34766 18.25 4.125 18.1445 3.96094 17.9336C3.79688 17.7227 3.75 17.4766 3.82031 17.1953L5.4375 10.375H1.25391C1.08984 10.375 0.9375 10.3281 0.796875 10.2344C0.65625 10.1406 0.550781 10.0234 0.480469 9.88281C0.410156 9.74219 0.386719 9.58984 0.410156 9.42578L1.53516 0.988281C1.55859 0.847656 1.60547 0.71875 1.67578 0.601562C1.76953 0.484375 1.875 0.402344 1.99219 0.355469C2.10938 0.285156 2.23828 0.25 2.37891 0.25H7.44141C7.72266 0.25 7.94531 0.367187 8.10938 0.601562C8.27344 0.8125 8.32031 1.04688 8.25 1.30469L6.77344 5.875H10.8164ZM5.33203 15.6133L10.3242 7H5.19141L5.68359 5.52344L7.05469 1.375H2.625L1.57031 9.25H6.84375L6.52734 10.6211L5.33203 15.6133Z" fill="#FFB229"/>
</svg>
