<svg width="18" height="17" viewBox="0 0 18 17" fill="none" xmlns="http://www.w3.org/2000/svg">
<path d="M17.8945 7.30078C17.9648 7.37109 18 7.44141 18 7.51172C18 7.58203 17.9766 7.64062 17.9297 7.6875L17.5781 8.14453C17.5312 8.21484 17.4609 8.25 17.3672 8.25C17.2969 8.25 17.2383 8.22656 17.1914 8.17969L15.75 7.01953V15.5625C15.75 15.7031 15.6914 15.832 15.5742 15.9492C15.4805 16.0664 15.3516 16.125 15.1875 16.125H10.6875C10.5234 16.125 10.3828 16.0664 10.2656 15.9492C10.1719 15.8555 10.125 15.7266 10.125 15.5625V11.0625H7.875V15.5625C7.875 15.7031 7.81641 15.832 7.69922 15.9492C7.60547 16.0664 7.47656 16.125 7.3125 16.125H2.8125C2.64844 16.125 2.50781 16.0664 2.39062 15.9492C2.29688 15.832 2.25 15.7031 2.25 15.5625V7.01953L0.808594 8.17969C0.761719 8.22656 0.703125 8.25 0.632812 8.25C0.539062 8.25 0.46875 8.21484 0.421875 8.14453L0.0703125 7.6875C0.0234375 7.64062 0 7.58203 0 7.51172C0 7.44141 0.0351562 7.37109 0.105469 7.30078L8.29688 0.621094C8.50781 0.457031 8.74219 0.375 9 0.375C9.25781 0.375 9.49219 0.457031 9.70312 0.621094L14.625 4.62891V2.83594C14.625 2.69531 14.6953 2.625 14.8359 2.625H15.5391C15.6797 2.625 15.75 2.69531 15.75 2.83594V5.54297L17.8945 7.30078ZM14.625 15V6.10547L9 1.5L3.375 6.10547V15H6.75V10.5C6.75 10.3359 6.79688 10.207 6.89062 10.1133C7.00781 9.99609 7.14844 9.9375 7.3125 9.9375H10.6875C10.7578 9.9375 10.8281 9.94922 10.8984 9.97266C10.9688 9.99609 11.0273 10.043 11.0742 10.1133C11.1211 10.1602 11.1562 10.2188 11.1797 10.2891C11.2266 10.3594 11.25 10.4297 11.25 10.5V15H14.625Z" fill="#0D66E5"/>
</svg>
